<svg width="22" height="20" viewBox="0 0 22 20" fill="none" xmlns="http://www.w3.org/2000/svg">
<path d="M9.89235 0.859824C10.1922 -0.0604526 11.4941 -0.0604517 11.794 0.859825L13.5451 6.23422C13.6792 6.64585 14.0629 6.92443 14.4959 6.92443H20.1566C21.126 6.92443 21.5283 8.16546 20.7433 8.73422L16.1685 12.0489C15.817 12.3035 15.6699 12.7558 15.8044 13.1684L17.5529 18.5351C17.853 19.4559 16.7997 20.2229 16.0154 19.6547L11.4299 16.3323C11.0798 16.0787 10.6065 16.0787 10.2564 16.3323L5.67089 19.6547C4.88663 20.2229 3.83334 19.4559 4.13336 18.5351L5.88194 13.1684C6.01639 12.7558 5.86931 12.3035 5.51785 12.0489L0.942977 8.73422C0.15797 8.16546 0.560301 6.92443 1.5297 6.92443H7.19045C7.62338 6.92443 8.00714 6.64585 8.14126 6.23422L9.89235 0.859824Z" fill="#E5E5E5"/>
</svg>
