<svg width="21" height="20" viewBox="0 0 21 20" fill="none" xmlns="http://www.w3.org/2000/svg">
<path d="M9.50374 0.859824C9.80359 -0.0604526 11.1055 -0.0604517 11.4053 0.859825L13.1564 6.23422C13.2906 6.64585 13.6743 6.92443 14.1072 6.92443H19.768C20.7374 6.92443 21.1397 8.16546 20.3547 8.73422L15.7798 12.0489C15.4284 12.3035 15.2813 12.7558 15.4158 13.1684L17.1643 18.5351C17.4644 19.4559 16.4111 20.2229 15.6268 19.6547L11.0413 16.3323C10.6912 16.0787 10.2179 16.0787 9.86782 16.3323L5.28228 19.6547C4.49802 20.2229 3.44473 19.4559 3.74475 18.5351L5.49333 13.1684C5.62778 12.7558 5.4807 12.3035 5.12924 12.0489L0.554366 8.73422C-0.23064 8.16546 0.17169 6.92443 1.14108 6.92443H6.80184C7.23477 6.92443 7.61853 6.64585 7.75264 6.23422L9.50374 0.859824Z" fill="#070707"/>
</svg>
